<?xml version="1.0" encoding="utf-8"?>
<svg version="1.1" xmlns:xlink="http://www.w3.org/1999/xlink" width="16px" height="18px" xmlns="http://www.w3.org/2000/svg">
  <defs>
    <pattern id="BGPattern" patternUnits="userSpaceOnUse" alignment="0 0" imageRepeat="None" />
    <mask fill="white" id="Clip14">
      <path d="M 14.857142857142858 11.992146596858639  C 15.61904761904762 12.761780104712042  16 13.684554973821989  16 14.76047120418848  C 16 15.679319371727749  15.69904761904762 16.44895287958115  15.097142857142858 17.069371727748692  C 14.495238095238097 17.68979057591623  13.748571428571429 18  12.857142857142858 18  C 11.82857142857143 18  10.933333333333334 17.60732984293194  10.17142857142857 16.82198952879581  L 1.2914285714285716 7.68062827225131  C 0.4304761904761906 6.777486910994763  0 5.713350785340314  0 4.4882198952879575  C 0 3.239528795811519  0.41904761904761917 2.1793193717277486  1.2571428571428573 1.3075916230366482  C 2.095238095238096 0.4358638743455501  3.12 0  4.331428571428572 0  C 5.535238095238095 0  6.575238095238095 0.44371727748690826  7.451428571428571 1.3311518324607328  L 14.365714285714287 8.469895287958115  C 14.441904761904762 8.548429319371728  14.48 8.634816753926701  14.48 8.729057591623036  C 14.48 8.854712041884817  14.363809523809525 9.037303664921467  14.131428571428572 9.276832460732985  C 13.89904761904762 9.516361256544503  13.721904761904764 9.636125654450263  13.6 9.636125654450263  C 13.500952380952382 9.636125654450263  13.413333333333334 9.596858638743454  13.337142857142856 9.518324607329845  L 6.411428571428571 2.3678010471204187  C 5.80952380952381 1.7630890052356007  5.120000000000001 1.4607329842931938  4.3428571428571425 1.4607329842931938  C 3.5352380952380957 1.4607329842931938  2.8533333333333335 1.7552356020942406  2.297142857142857 2.344240837696334  C 1.7409523809523815 2.93324607329843  1.4628571428571429 3.643979057591622  1.4628571428571429 4.476439790575915  C 1.4628571428571429 5.301047120418849  1.7523809523809528 6.011780104712041  2.3314285714285714 6.608638743455497  L 11.2 15.761780104712042  C 11.68 16.256544502617803  12.232380952380954 16.50392670157068  12.857142857142858 16.50392670157068  C 13.344761904761906 16.50392670157068  13.748571428571429 16.339005235602095  14.06857142857143 16.009162303664922  C 14.388571428571428 15.679319371727749  14.548571428571428 15.263089005235603  14.548571428571428 14.76047120418848  C 14.548571428571428 14.116492146596858  14.308571428571428 13.547120418848166  13.82857142857143 13.05235602094241  L 7.188571428571429 6.208115183246074  C 6.990476190476191 6.019633507853403  6.761904761904763 5.925392670157069  6.502857142857143 5.925392670157069  C 6.281904761904763 5.925392670157069  6.09904761904762 5.999999999999998  5.954285714285715 6.149214659685864  C 5.80952380952381 6.298429319371728  5.7371428571428575 6.486910994764398  5.7371428571428575 6.714659685863875  C 5.7371428571428575 6.965968586387433  5.832380952380952 7.197643979057593  6.022857142857143 7.409685863874345  L 10.708571428571428 12.23952879581152  C 10.784761904761906 12.318062827225129  10.822857142857144 12.404450261780104  10.822857142857142 12.49869109947644  C 10.822857142857144 12.624345549738218  10.704761904761906 12.808900523560208  10.468571428571428 13.05235602094241  C 10.232380952380954 13.295811518324605  10.053333333333335 13.417539267015705  9.93142857142857 13.417539267015705  C 9.840000000000002 13.417539267015705  9.756190476190477 13.3782722513089  9.68 13.299738219895287  L 4.994285714285715 8.469895287958115  C 4.514285714285714 7.990837696335077  4.274285714285714 7.405759162303665  4.274285714285714 6.714659685863875  C 4.274285714285714 6.0706806282722505  4.491428571428571 5.524869109947644  4.925714285714286 5.077225130890053  C 5.36 4.629581151832461  5.88952380952381 4.405759162303665  6.514285714285714 4.405759162303665  C 7.184761904761905 4.405759162303665  7.752380952380952 4.6531413612565435  8.217142857142857 5.1479057591623025  L 14.857142857142858 11.992146596858639  Z " fill-rule="evenodd" />
    </mask>
  </defs>
  <g transform="matrix(1 0 0 1 -873 -883 )">
    <path d="M 14.857142857142858 11.992146596858639  C 15.61904761904762 12.761780104712042  16 13.684554973821989  16 14.76047120418848  C 16 15.679319371727749  15.69904761904762 16.44895287958115  15.097142857142858 17.069371727748692  C 14.495238095238097 17.68979057591623  13.748571428571429 18  12.857142857142858 18  C 11.82857142857143 18  10.933333333333334 17.60732984293194  10.17142857142857 16.82198952879581  L 1.2914285714285716 7.68062827225131  C 0.4304761904761906 6.777486910994763  0 5.713350785340314  0 4.4882198952879575  C 0 3.239528795811519  0.41904761904761917 2.1793193717277486  1.2571428571428573 1.3075916230366482  C 2.095238095238096 0.4358638743455501  3.12 0  4.331428571428572 0  C 5.535238095238095 0  6.575238095238095 0.44371727748690826  7.451428571428571 1.3311518324607328  L 14.365714285714287 8.469895287958115  C 14.441904761904762 8.548429319371728  14.48 8.634816753926701  14.48 8.729057591623036  C 14.48 8.854712041884817  14.363809523809525 9.037303664921467  14.131428571428572 9.276832460732985  C 13.89904761904762 9.516361256544503  13.721904761904764 9.636125654450263  13.6 9.636125654450263  C 13.500952380952382 9.636125654450263  13.413333333333334 9.596858638743454  13.337142857142856 9.518324607329845  L 6.411428571428571 2.3678010471204187  C 5.80952380952381 1.7630890052356007  5.120000000000001 1.4607329842931938  4.3428571428571425 1.4607329842931938  C 3.5352380952380957 1.4607329842931938  2.8533333333333335 1.7552356020942406  2.297142857142857 2.344240837696334  C 1.7409523809523815 2.93324607329843  1.4628571428571429 3.643979057591622  1.4628571428571429 4.476439790575915  C 1.4628571428571429 5.301047120418849  1.7523809523809528 6.011780104712041  2.3314285714285714 6.608638743455497  L 11.2 15.761780104712042  C 11.68 16.256544502617803  12.232380952380954 16.50392670157068  12.857142857142858 16.50392670157068  C 13.344761904761906 16.50392670157068  13.748571428571429 16.339005235602095  14.06857142857143 16.009162303664922  C 14.388571428571428 15.679319371727749  14.548571428571428 15.263089005235603  14.548571428571428 14.76047120418848  C 14.548571428571428 14.116492146596858  14.308571428571428 13.547120418848166  13.82857142857143 13.05235602094241  L 7.188571428571429 6.208115183246074  C 6.990476190476191 6.019633507853403  6.761904761904763 5.925392670157069  6.502857142857143 5.925392670157069  C 6.281904761904763 5.925392670157069  6.09904761904762 5.999999999999998  5.954285714285715 6.149214659685864  C 5.80952380952381 6.298429319371728  5.7371428571428575 6.486910994764398  5.7371428571428575 6.714659685863875  C 5.7371428571428575 6.965968586387433  5.832380952380952 7.197643979057593  6.022857142857143 7.409685863874345  L 10.708571428571428 12.23952879581152  C 10.784761904761906 12.318062827225129  10.822857142857144 12.404450261780104  10.822857142857142 12.49869109947644  C 10.822857142857144 12.624345549738218  10.704761904761906 12.808900523560208  10.468571428571428 13.05235602094241  C 10.232380952380954 13.295811518324605  10.053333333333335 13.417539267015705  9.93142857142857 13.417539267015705  C 9.840000000000002 13.417539267015705  9.756190476190477 13.3782722513089  9.68 13.299738219895287  L 4.994285714285715 8.469895287958115  C 4.514285714285714 7.990837696335077  4.274285714285714 7.405759162303665  4.274285714285714 6.714659685863875  C 4.274285714285714 6.0706806282722505  4.491428571428571 5.524869109947644  4.925714285714286 5.077225130890053  C 5.36 4.629581151832461  5.88952380952381 4.405759162303665  6.514285714285714 4.405759162303665  C 7.184761904761905 4.405759162303665  7.752380952380952 4.6531413612565435  8.217142857142857 5.1479057591623025  L 14.857142857142858 11.992146596858639  Z " fill-rule="nonzero" fill="rgba(127, 127, 127, 1)" stroke="none" transform="matrix(1 0 0 1 873 883 )" class="fill" />
    <path d="M 14.857142857142858 11.992146596858639  C 15.61904761904762 12.761780104712042  16 13.684554973821989  16 14.76047120418848  C 16 15.679319371727749  15.69904761904762 16.44895287958115  15.097142857142858 17.069371727748692  C 14.495238095238097 17.68979057591623  13.748571428571429 18  12.857142857142858 18  C 11.82857142857143 18  10.933333333333334 17.60732984293194  10.17142857142857 16.82198952879581  L 1.2914285714285716 7.68062827225131  C 0.4304761904761906 6.777486910994763  0 5.713350785340314  0 4.4882198952879575  C 0 3.239528795811519  0.41904761904761917 2.1793193717277486  1.2571428571428573 1.3075916230366482  C 2.095238095238096 0.4358638743455501  3.12 0  4.331428571428572 0  C 5.535238095238095 0  6.575238095238095 0.44371727748690826  7.451428571428571 1.3311518324607328  L 14.365714285714287 8.469895287958115  C 14.441904761904762 8.548429319371728  14.48 8.634816753926701  14.48 8.729057591623036  C 14.48 8.854712041884817  14.363809523809525 9.037303664921467  14.131428571428572 9.276832460732985  C 13.89904761904762 9.516361256544503  13.721904761904764 9.636125654450263  13.6 9.636125654450263  C 13.500952380952382 9.636125654450263  13.413333333333334 9.596858638743454  13.337142857142856 9.518324607329845  L 6.411428571428571 2.3678010471204187  C 5.80952380952381 1.7630890052356007  5.120000000000001 1.4607329842931938  4.3428571428571425 1.4607329842931938  C 3.5352380952380957 1.4607329842931938  2.8533333333333335 1.7552356020942406  2.297142857142857 2.344240837696334  C 1.7409523809523815 2.93324607329843  1.4628571428571429 3.643979057591622  1.4628571428571429 4.476439790575915  C 1.4628571428571429 5.301047120418849  1.7523809523809528 6.011780104712041  2.3314285714285714 6.608638743455497  L 11.2 15.761780104712042  C 11.68 16.256544502617803  12.232380952380954 16.50392670157068  12.857142857142858 16.50392670157068  C 13.344761904761906 16.50392670157068  13.748571428571429 16.339005235602095  14.06857142857143 16.009162303664922  C 14.388571428571428 15.679319371727749  14.548571428571428 15.263089005235603  14.548571428571428 14.76047120418848  C 14.548571428571428 14.116492146596858  14.308571428571428 13.547120418848166  13.82857142857143 13.05235602094241  L 7.188571428571429 6.208115183246074  C 6.990476190476191 6.019633507853403  6.761904761904763 5.925392670157069  6.502857142857143 5.925392670157069  C 6.281904761904763 5.925392670157069  6.09904761904762 5.999999999999998  5.954285714285715 6.149214659685864  C 5.80952380952381 6.298429319371728  5.7371428571428575 6.486910994764398  5.7371428571428575 6.714659685863875  C 5.7371428571428575 6.965968586387433  5.832380952380952 7.197643979057593  6.022857142857143 7.409685863874345  L 10.708571428571428 12.23952879581152  C 10.784761904761906 12.318062827225129  10.822857142857144 12.404450261780104  10.822857142857142 12.49869109947644  C 10.822857142857144 12.624345549738218  10.704761904761906 12.808900523560208  10.468571428571428 13.05235602094241  C 10.232380952380954 13.295811518324605  10.053333333333335 13.417539267015705  9.93142857142857 13.417539267015705  C 9.840000000000002 13.417539267015705  9.756190476190477 13.3782722513089  9.68 13.299738219895287  L 4.994285714285715 8.469895287958115  C 4.514285714285714 7.990837696335077  4.274285714285714 7.405759162303665  4.274285714285714 6.714659685863875  C 4.274285714285714 6.0706806282722505  4.491428571428571 5.524869109947644  4.925714285714286 5.077225130890053  C 5.36 4.629581151832461  5.88952380952381 4.405759162303665  6.514285714285714 4.405759162303665  C 7.184761904761905 4.405759162303665  7.752380952380952 4.6531413612565435  8.217142857142857 5.1479057591623025  L 14.857142857142858 11.992146596858639  Z " stroke-width="0" stroke-dasharray="0" stroke="rgba(255, 255, 255, 0)" fill="none" transform="matrix(1 0 0 1 873 883 )" class="stroke" mask="url(#Clip14)" />
  </g>
</svg>